<svg xmlns="http://www.w3.org/2000/svg" viewBox="0 0 90 72">
  <g>
    <rect fill="#8E74D0" x="54" y="20.25" width="18" height="9" rx="4.5"/>
    <path fill="#8E74D0" d="M54,18H72a0,0,0,0,1,0,0V72a0,0,0,0,1,0,0H62a8,8,0,0,1-8-8V18A0,0,0,0,1,54,18Z"/>
    <rect fill="#8E74D0" x="9" y="54" width="18" height="18" rx="8"/>
    <rect fill="#8E74D0" x="63" y="63" width="18" height="9" rx="4.5"/>
    <path fill="#8E74D0" d="M8,0H82a8,8,0,0,1,8,8v2a8,8,0,0,1-8,8H0a0,0,0,0,1,0,0V8A8,8,0,0,1,8,0Z"/>
    <path fill="#8E74D0" d="M18,18H36a0,0,0,0,1,0,0V64a8,8,0,0,1-8,8H18a0,0,0,0,1,0,0V18A0,0,0,0,1,18,18Z"/>
    <path fill="#8E74D0" d="M0,18H9a0,0,0,0,1,0,0v4.5A4.5,4.5,0,0,1,4.5,27h0A4.5,4.5,0,0,1,0,22.5V18A0,0,0,0,1,0,18Z"/>
  </g>
</svg>