<svg xmlns="http://www.w3.org/2000/svg" viewBox="0 0 90 72"><defs><style>.cls-1{fill:#8e74d0;}</style></defs><g id="Layer_2" data-name="Layer 2"><g id="Layer_4" data-name="Layer 4"><rect class="cls-1" x="54" y="20.25" width="18" height="9" rx="4.5"/><path class="cls-1" d="M54,9H72a0,0,0,0,1,0,0V72a0,0,0,0,1,0,0H62a8,8,0,0,1-8-8V9A0,0,0,0,1,54,9Z"/><rect class="cls-1" x="9" y="54" width="18" height="18" rx="8"/><rect class="cls-1" x="63" y="54" width="18" height="18" rx="8"/></g><g id="Layer_5" data-name="Layer 5"><path class="cls-1" d="M8,0H82a8,8,0,0,1,8,8v2a8,8,0,0,1-8,8H0a0,0,0,0,1,0,0V8A8,8,0,0,1,8,0Z"/><path class="cls-1" d="M18,9H36a0,0,0,0,1,0,0V64a8,8,0,0,1-8,8H18a0,0,0,0,1,0,0V9A0,0,0,0,1,18,9Z"/><path class="cls-1" d="M0,9H9A0,0,0,0,1,9,9V22.5A4.5,4.5,0,0,1,4.5,27h0A4.5,4.5,0,0,1,0,22.5V9A0,0,0,0,1,0,9Z"/></g></g></svg>